<svg width="20" height="20" viewBox="0 0 20 20" fill="none" xmlns="http://www.w3.org/2000/svg">
<path d="M18.1429 6.64433L13.4987 6.30876C13.4017 6.30096 13.3164 6.24243 13.2814 6.14878L11.5122 1.81765C11.2678 1.22066 10.7169 0.849976 10.0728 0.849976C9.42877 0.849976 8.88171 1.22066 8.6334 1.82155L6.86032 6.15659C6.82152 6.24633 6.74004 6.30876 6.64305 6.31656L2.00664 6.65213C1.37811 6.68725 0.842692 7.10085 0.637061 7.70955C0.42755 8.32605 0.602142 8.97377 1.09876 9.39908L4.68761 12.3801C4.76133 12.4426 4.79625 12.544 4.77297 12.6377L3.67885 17.1405C3.55082 17.6087 3.64005 18.0926 3.92328 18.471C4.21427 18.8534 4.66821 19.0836 5.14543 19.0836C5.4403 19.0836 5.72741 18.9939 5.96408 18.8339L9.88659 16.3796C9.96807 16.3289 10.0728 16.3289 10.1543 16.3796L14.1156 18.8261C14.3639 18.9939 14.651 19.0836 14.942 19.0836C15.3882 19.0836 15.8305 18.869 16.1176 18.5062C16.4164 18.1316 16.525 17.6438 16.4164 17.1561L15.3184 12.6416C15.2951 12.544 15.33 12.4426 15.4037 12.3801L19.0469 9.39128C19.5357 8.96987 19.7103 8.32215 19.5047 7.70565C19.303 7.09695 18.7637 6.67944 18.1429 6.64433Z" fill="#FFCA58"/>
</svg>
